<?xml version="1.0" encoding="utf-8"?>
<!-- Generator: Adobe Illustrator 21.0.0, SVG Export Plug-In . SVG Version: 6.00 Build 0)  -->
<!DOCTYPE svg PUBLIC "-//W3C//DTD SVG 1.1//EN" "http://www.w3.org/Graphics/SVG/1.1/DTD/svg11.dtd">
<svg version="1.1" id="Calque_1" xmlns="http://www.w3.org/2000/svg" xmlns:xlink="http://www.w3.org/1999/xlink" x="0px" y="0px"
	 viewBox="0 0 135 135" style="enable-background:new 0 0 135 135;" xml:space="preserve">
<style type="text/css">
	.st0{fill:#FFFFFF;}
	.st1{fill:#00BABC;}
	.st2{fill:none;stroke:#00BABC;stroke-width:2;stroke-linecap:round;stroke-linejoin:round;stroke-miterlimit:10;}
</style>
<g>
	<path class="st0" d="M67.5,133.5c-36.4,0-66-29.6-66-66s29.6-66,66-66s66,29.6,66,66S103.9,133.5,67.5,133.5z"/>
	<path class="st1" d="M67.5,2.5c35.8,0,65,29.2,65,65s-29.2,65-65,65s-65-29.2-65-65S31.7,2.5,67.5,2.5 M67.5,0.5c-37,0-67,30-67,67
		s30,67,67,67s67-30,67-67S104.5,0.5,67.5,0.5L67.5,0.5z"/>
</g>
<g>
	<polyline class="st2" points="87.5,64.9 87.5,95.7 40.7,95.7 40.7,43.9 80.1,43.9 	"/>
	<path class="st2" d="M73.1,66.8l-7,3.5l3.5-7l23.5-23.5c2.3-2.3,5.8,1.2,3.5,3.5L73.1,66.8z"/>
	<line class="st2" x1="89.6" y1="43.2" x2="93.1" y2="46.7"/>
</g>
</svg>
